<mxfile host="app.diagrams.net" modified="2024-06-10T09:49:58.228Z" agent="Mozilla/5.0 (Windows NT 10.0; Win64; x64) AppleWebKit/537.36 (KHTML, like Gecko) Chrome/125.0.0.0 Safari/537.36" etag="pyZPDuv0m1iKkFnMy5i-" version="24.5.2" type="github">
  <diagram name="Page-1" id="bnoGbszoL2UYCw-8yMfr">
    <mxGraphModel dx="794" dy="873" grid="0" gridSize="10" guides="1" tooltips="1" connect="1" arrows="1" fold="1" page="0" pageScale="1" pageWidth="850" pageHeight="1100" math="0" shadow="0">
      <root>
        <mxCell id="0" />
        <mxCell id="1" parent="0" />
        <mxCell id="KGMwKdeAEPZDFbzfCrAN-2" value="&lt;div&gt;&lt;font style=&quot;font-size: 18px;&quot;&gt;1) id (P.K)&lt;/font&gt;&lt;/div&gt;&lt;div&gt;&lt;span style=&quot;background-color: initial;&quot;&gt;&lt;font size=&quot;3&quot;&gt;2) name&lt;/font&gt;&lt;/span&gt;&lt;/div&gt;&lt;div&gt;&lt;font size=&quot;3&quot;&gt;3) price&lt;/font&gt;&lt;/div&gt;&lt;div&gt;&lt;font size=&quot;3&quot;&gt;4)&amp;nbsp;&amp;nbsp;&lt;/font&gt;&lt;span style=&quot;font-size: medium; background-color: initial;&quot;&gt;category_id&lt;/span&gt;&lt;/div&gt;" style="rounded=1;whiteSpace=wrap;html=1;fontFamily=Comic Sans MS;labelBackgroundColor=none;fillColor=#FAE5C7;strokeColor=#0F8B8D;fontColor=#143642;" vertex="1" parent="1">
          <mxGeometry x="460" y="24" width="183" height="146" as="geometry" />
        </mxCell>
        <mxCell id="KGMwKdeAEPZDFbzfCrAN-4" value="&lt;span style=&quot;background-color: initial;&quot;&gt;&lt;font style=&quot;font-size: 18px;&quot;&gt;1) id (PK)&lt;/font&gt;&lt;/span&gt;&lt;div&gt;&lt;font size=&quot;3&quot;&gt;2) name&lt;/font&gt;&lt;/div&gt;" style="rounded=1;whiteSpace=wrap;html=1;fontFamily=Comic Sans MS;labelBackgroundColor=none;fillColor=#FAE5C7;strokeColor=#0F8B8D;fontColor=#143642;" vertex="1" parent="1">
          <mxGeometry x="148" y="18" width="129" height="151" as="geometry" />
        </mxCell>
        <mxCell id="KGMwKdeAEPZDFbzfCrAN-17" value="CATEGORY" style="rounded=1;whiteSpace=wrap;html=1;fillColor=#dae8fc;strokeColor=#6c8ebf;" vertex="1" parent="1">
          <mxGeometry x="152.5" y="-59" width="120" height="77" as="geometry" />
        </mxCell>
        <mxCell id="KGMwKdeAEPZDFbzfCrAN-18" value="PRODUCT" style="rounded=1;whiteSpace=wrap;html=1;fillColor=#dae8fc;strokeColor=#6c8ebf;" vertex="1" parent="1">
          <mxGeometry x="464" y="-56" width="168" height="78" as="geometry" />
        </mxCell>
        <mxCell id="KGMwKdeAEPZDFbzfCrAN-19" value="&lt;font style=&quot;font-size: 18px;&quot;&gt;1-to-M&lt;/font&gt;" style="endArrow=classic;html=1;rounded=0;entryX=0.997;entryY=0.464;entryDx=0;entryDy=0;entryPerimeter=0;" edge="1" parent="1">
          <mxGeometry relative="1" as="geometry">
            <mxPoint x="456.39" y="70" as="sourcePoint" />
            <mxPoint x="277.00300000000004" y="89.06399999999996" as="targetPoint" />
          </mxGeometry>
        </mxCell>
      </root>
    </mxGraphModel>
  </diagram>
</mxfile>
